<?xml version="1.0" standalone="no"?>
<!DOCTYPE svg PUBLIC "-//W3C//DTD SVG 20010904//EN"
 "http://www.w3.org/TR/2001/REC-SVG-20010904/DTD/svg10.dtd">
<svg version="1.0" xmlns="http://www.w3.org/2000/svg"
 width="200.000000pt" height="200.000000pt" viewBox="0 0 200.000000 200.000000"
 preserveAspectRatio="xMidYMid meet">
<metadata>
Created by potrace 1.16, written by Peter Selinger 2001-2019
</metadata>
<g transform="translate(0.000000,200.000000) scale(0.100000,-0.100000)"
fill="#000000" stroke="none">
<path d="M897 1706 c-119 -44 -199 -179 -181 -305 3 -26 25 -82 47 -126 39
-77 41 -85 45 -190 3 -67 9 -113 16 -117 14 -10 338 -10 352 0 7 4 13 50 16
117 4 107 5 113 48 194 39 76 43 92 44 155 0 112 -49 199 -142 253 -37 22 -60
27 -126 30 -52 2 -94 -2 -119 -11z m221 -79 c57 -38 86 -93 90 -170 4 -64 2
-73 -36 -145 -22 -43 -43 -94 -47 -115 l-7 -37 -118 0 -118 0 -7 37 c-4 21
-25 72 -47 115 -38 72 -40 81 -36 146 3 55 9 77 31 108 69 99 198 126 295 61z"/>
<path d="M956 1405 c-13 -14 -31 -25 -40 -25 -9 0 -25 -9 -37 -21 -25 -25 -20
-67 17 -142 22 -42 29 -48 52 -45 35 4 40 34 14 85 l-20 38 58 0 58 0 -20 -38
c-26 -51 -21 -81 14 -85 23 -3 30 3 52 45 37 75 42 117 17 142 -12 12 -28 21
-37 21 -9 0 -27 11 -40 25 -13 14 -32 25 -44 25 -12 0 -31 -11 -44 -25z"/>
<path d="M435 1670 c-10 -32 9 -46 110 -80 114 -38 140 -37 140 4 0 28 -4 31
-100 63 -116 39 -141 41 -150 13z"/>
<path d="M1410 1656 c-86 -29 -95 -35 -98 -59 -5 -42 21 -43 135 -6 112 36
128 47 118 79 -9 28 -41 25 -155 -14z"/>
<path d="M403 1484 c-3 -9 -2 -24 4 -33 15 -24 231 -24 246 0 6 9 7 24 4 33
-5 14 -25 16 -127 16 -102 0 -122 -2 -127 -16z"/>
<path d="M1347 1493 c-4 -3 -7 -17 -7 -29 0 -31 21 -36 144 -32 104 3 127 14
113 52 -5 14 -24 16 -125 16 -65 0 -122 -3 -125 -7z"/>
<path d="M558 1346 c-91 -37 -102 -47 -93 -75 9 -30 54 -26 145 13 69 29 75
34 75 61 0 42 -30 42 -127 1z"/>
<path d="M1314 1366 c-13 -34 3 -51 76 -83 84 -35 135 -42 144 -17 11 28 -10
46 -95 80 -91 37 -117 41 -125 20z"/>
<path d="M595 864 c-77 -43 -151 -78 -182 -84 -242 -51 -270 -389 -40 -485 50
-21 152 -19 202 4 22 10 56 33 74 52 108 107 92 302 -30 384 l-45 31 98 54
c110 60 122 70 113 100 -11 34 -53 22 -190 -56z m-20 -188 c64 -49 91 -141 62
-209 l-12 -29 -32 40 c-26 32 -32 47 -27 70 7 34 -16 86 -45 102 -39 20 -91
12 -123 -20 -27 -27 -30 -36 -26 -73 4 -37 1 -48 -28 -81 l-33 -39 -11 27
c-13 35 -13 97 1 133 14 37 56 82 94 99 49 23 136 13 180 -20z"/>
<path d="M966 924 c-3 -9 -6 -44 -6 -78 l0 -62 -42 -11 c-57 -15 -120 -71
-148 -130 -18 -39 -21 -60 -18 -123 4 -96 38 -159 112 -205 45 -27 57 -30 136
-30 79 0 91 3 136 30 74 46 108 109 112 205 4 67 1 83 -22 127 -31 62 -86 110
-143 126 l-43 11 0 62 c0 80 -6 94 -40 94 -16 0 -30 -7 -34 -16z m114 -233
c80 -43 122 -145 90 -221 l-13 -31 -30 37 c-25 29 -31 46 -31 86 -1 63 -35 98
-96 98 -61 0 -95 -35 -96 -98 0 -40 -6 -57 -31 -86 l-30 -37 -13 31 c-7 17
-10 51 -8 81 12 121 151 198 258 140z"/>
<path d="M1215 919 c-9 -28 2 -38 118 -102 l98 -54 -31 -13 c-69 -28 -120
-122 -120 -220 0 -147 102 -249 248 -250 134 0 232 82 256 213 23 125 -69 258
-197 287 -27 6 -110 44 -184 85 -143 79 -177 89 -188 54z m388 -223 c39 -16
82 -61 96 -99 14 -36 14 -98 1 -133 l-11 -27 -33 39 c-29 33 -32 44 -28 81 4
37 1 46 -26 73 -32 32 -84 40 -123 20 -29 -16 -52 -68 -45 -104 4 -25 -1 -38
-28 -69 l-34 -38 -11 32 c-16 46 -13 88 8 134 41 90 143 130 234 91z"/>
</g>
</svg>
