<?xml version="1.0" standalone="no"?>
<!DOCTYPE svg PUBLIC "-//W3C//DTD SVG 20010904//EN"
 "http://www.w3.org/TR/2001/REC-SVG-20010904/DTD/svg10.dtd">
<svg version="1.0" xmlns="http://www.w3.org/2000/svg"
 width="200.000000pt" height="200.000000pt" viewBox="0 0 200.000000 200.000000"
 preserveAspectRatio="xMidYMid meet">
<metadata>
Created by potrace 1.16, written by Peter Selinger 2001-2019
</metadata>
<g transform="translate(0.000000,200.000000) scale(0.100000,-0.100000)"
fill="#000000" stroke="none">
<path d="M837 1951 c-163 -54 -275 -190 -300 -365 -13 -88 8 -194 53 -273 l30
-53 65 0 c36 0 65 3 65 6 0 4 -16 25 -36 47 -59 65 -79 119 -79 217 0 72 4 94
28 145 79 168 279 246 443 171 208 -95 273 -349 133 -526 -21 -27 -39 -52 -39
-55 0 -3 27 -5 60 -5 l60 0 29 45 c71 112 81 286 23 410 -43 90 -118 167 -209
212 -66 33 -82 36 -171 40 -76 2 -110 -1 -155 -16z"/>
<path d="M852 1764 c-159 -79 -190 -297 -60 -421 95 -91 248 -97 350 -13 83
69 115 218 67 316 -23 49 -86 110 -135 130 -57 24 -162 18 -222 -12z"/>
<path d="M307 1445 c-50 -17 -85 -50 -108 -100 -17 -37 -19 -75 -19 -527 0
-472 1 -488 19 -498 12 -6 100 -10 215 -10 l196 0 0 78 0 78 -70 69 -70 69 0
62 c0 56 -3 66 -30 92 -40 41 -40 83 -1 123 40 39 82 39 122 0 39 -40 39 -82
-1 -123 -26 -26 -30 -37 -30 -87 0 -56 0 -57 65 -121 l65 -64 0 -88 0 -88 50
0 50 0 0 270 c0 234 -2 271 -15 277 -19 7 -45 55 -45 82 0 11 12 33 26 50 64
77 182 3 144 -90 -7 -16 -21 -34 -31 -40 -18 -9 -19 -27 -19 -279 l0 -270 50
0 50 0 0 61 0 61 70 72 c67 69 70 75 70 120 0 40 -5 52 -30 76 -55 52 -29 142
46 156 36 7 88 -30 98 -71 8 -30 -16 -80 -44 -95 -17 -9 -20 -21 -20 -78 l0
-68 -65 -64 c-64 -63 -65 -66 -65 -117 l0 -53 375 0 c362 0 376 1 395 20 24
24 24 29 5 57 -14 20 -25 22 -159 25 -142 3 -145 3 -187 33 -108 76 -116 224
-18 309 52 44 103 56 243 56 143 0 140 -3 134 154 -4 133 -19 169 -88 204
l-44 22 -641 0 -642 0 -20 23 c-30 33 -35 55 -19 86 19 36 55 51 121 51 39 0
53 4 50 13 -2 6 -9 31 -15 55 l-11 42 -57 0 c-31 -1 -74 -7 -95 -15z"/>
<path d="M1453 710 c-41 -25 -53 -48 -53 -104 0 -55 34 -100 88 -117 57 -17
310 -8 322 11 14 22 13 203 -2 218 -8 8 -60 12 -168 12 -136 0 -159 -2 -187
-20z"/>
<path d="M183 164 c6 -55 31 -93 78 -116 31 -17 86 -18 715 -18 l681 0 33 22
c46 32 68 66 76 116 l7 42 -798 0 -798 0 6 -46z"/>
</g>
</svg>
