<?xml version="1.0" standalone="no"?>
<!DOCTYPE svg PUBLIC "-//W3C//DTD SVG 20010904//EN"
 "http://www.w3.org/TR/2001/REC-SVG-20010904/DTD/svg10.dtd">
<svg version="1.0" xmlns="http://www.w3.org/2000/svg"
 width="225.000000pt" height="225.000000pt" viewBox="0 0 225.000000 225.000000"
 preserveAspectRatio="xMidYMid meet">
<g transform="translate(0.000000,225.000000) scale(0.100000,-0.100000)"
fill="#000000" stroke="none">
<path d="M750 1984 c-63 -12 -125 -39 -156 -66 -70 -62 -33 -148 89 -208 129
-62 300 -90 562 -90 306 0 495 48 495 126 0 117 -375 229 -800 239 -91 2 -176
1 -190 -1z"/>
<path d="M584 1627 c18 -127 27 -259 25 -400 -2 -154 -2 -158 22 -183 33 -37
128 -78 229 -100 131 -29 466 -26 610 5 112 24 190 53 213 79 13 14 13 33 4
122 -10 99 2 362 19 426 l6 22 -56 -19 c-93 -30 -210 -42 -416 -42 -277 0
-454 29 -594 98 l-68 34 6 -42z"/>
<path d="M408 1036 c-150 -66 -236 -130 -286 -215 -39 -66 -38 -157 1 -223 50
-85 146 -148 307 -202 184 -60 461 -92 705 -81 660 31 1026 163 1025 371 -1
116 -97 221 -285 311 -42 19 -79 33 -82 29 -4 -3 4 -42 16 -86 38 -129 19
-187 -79 -250 -232 -149 -815 -172 -1101 -44 -72 32 -133 96 -149 155 -9 34
-9 54 4 103 8 34 18 85 22 114 8 63 6 64 -98 18z"/>
<path d="M572 919 c-26 -110 -10 -144 87 -193 96 -49 198 -67 406 -73 281 -8
496 29 618 107 65 41 75 66 53 135 -17 54 -18 54 -40 40 -12 -8 -49 -24 -82
-35 -277 -96 -811 -78 -976 34 -18 12 -38 25 -44 29 -7 4 -15 -13 -22 -44z"/>
</g>
</svg>
