<?xml version="1.0" standalone="no"?>
<!DOCTYPE svg PUBLIC "-//W3C//DTD SVG 20010904//EN"
 "http://www.w3.org/TR/2001/REC-SVG-20010904/DTD/svg10.dtd">
<svg version="1.0" xmlns="http://www.w3.org/2000/svg"
 width="512.000000pt" height="512.000000pt" viewBox="0 0 512.000000 512.000000"
 preserveAspectRatio="xMidYMid meet">
<metadata>
Created by potrace 1.16, written by Peter Selinger 2001-2019
</metadata>
<g transform="translate(0.000000,512.000000) scale(0.100000,-0.100000)"
fill="#000000" stroke="none">
<path d="M402 5104 c-88 -23 -163 -66 -233 -132 -191 -179 -223 -472 -75 -694
135 -205 414 -288 648 -194 l56 23 328 -328 328 -328 46 26 c25 14 87 51 139
81 l93 55 -357 357 -358 358 21 49 c83 195 36 430 -117 584 -107 107 -236 160
-387 158 -44 0 -103 -7 -132 -15z"/>
<path d="M2295 4860 l-260 -260 110 -110 110 -110 77 77 78 78 0 -263 c0 -144
3 -262 6 -262 4 0 38 18 77 40 l69 40 70 -40 c38 -22 74 -40 79 -40 5 0 9 109
9 257 l0 257 73 -72 72 -72 110 110 110 110 -260 260 c-143 143 -262 260 -265
260 -3 0 -122 -117 -265 -260z"/>
<path d="M4452 5106 c-189 -46 -353 -215 -392 -403 -19 -92 -9 -236 23 -313
l27 -65 -357 -357 c-196 -197 -355 -359 -353 -361 3 -2 65 -38 139 -81 l135
-77 326 326 326 326 80 -27 c103 -35 243 -38 345 -5 169 54 309 200 354 372
20 73 19 222 -1 290 -54 185 -205 331 -385 374 -77 18 -194 18 -267 1z"/>
<path d="M2113 3501 c-243 -141 -439 -259 -435 -263 20 -19 879 -508 889 -506
19 4 882 502 883 509 0 6 -886 520 -892 518 -2 -1 -202 -117 -445 -258z"/>
<path d="M255 2820 l-260 -260 262 -262 263 -263 105 105 c58 58 105 109 105
115 0 5 -33 42 -72 82 l-72 73 322 0 322 0 0 150 0 150 -322 0 -322 0 72 73
c39 40 72 77 72 82 0 10 -201 215 -210 215 -3 0 -122 -117 -265 -260z"/>
<path d="M4487 2972 l-107 -107 77 -78 78 -77 -323 0 -322 0 0 -150 0 -150
322 0 323 0 -78 -78 -77 -77 110 -110 110 -110 263 263 262 262 -260 260
c-143 143 -262 260 -265 260 -3 0 -54 -48 -113 -108z"/>
<path d="M1522 2474 l3 -515 440 -254 c242 -140 443 -255 448 -255 4 0 7 231
7 513 l0 514 -445 256 c-245 142 -447 257 -450 257 -3 0 -4 -232 -3 -516z"/>
<path d="M3155 2736 l-440 -254 -3 -516 c-1 -284 0 -516 2 -516 8 0 861 493
874 504 9 9 12 122 10 524 l-3 512 -440 -254z"/>
<path d="M1126 1341 l-328 -328 -58 24 c-162 65 -358 43 -509 -58 -135 -90
-217 -237 -228 -409 -12 -196 78 -376 242 -486 151 -101 367 -112 543 -27 80
39 190 150 230 233 74 151 78 328 11 473 l-13 28 358 358 358 358 -33 20 c-19
11 -68 40 -109 63 -41 23 -89 51 -105 61 l-31 18 -328 -328z"/>
<path d="M3540 1594 c-69 -40 -129 -75 -135 -78 -5 -2 151 -165 347 -362 l358
-359 -27 -65 c-32 -77 -42 -221 -23 -313 29 -139 140 -288 265 -354 309 -163
680 -7 779 326 20 68 21 217 1 290 -36 138 -152 281 -275 339 -143 68 -302 73
-458 15 l-44 -16 -326 326 c-180 180 -329 327 -332 326 -3 -1 -61 -34 -130
-75z"/>
<path d="M2410 848 l0 -263 -78 78 -77 77 -110 -110 -110 -110 263 -263 262
-262 262 262 263 263 -110 110 -110 110 -72 -72 -73 -72 0 257 c0 141 -4 257
-9 257 -4 0 -40 -18 -79 -41 l-71 -41 -70 41 c-38 23 -72 41 -75 41 -3 0 -6
-118 -6 -262z"/>
</g>
</svg>
