<?xml version="1.0" encoding="utf-8" standalone="no"?><!DOCTYPE svg PUBLIC "-//W3C//DTD SVG 20010904//EN" "http://www.w3.org/TR/2001/REC-SVG-20010904/DTD/svg10.dtd"><svg xmlns="http://www.w3.org/2000/svg" width="548" height="447" xmlns:xlink="http://www.w3.org/1999/xlink"><source><![CDATA[Consumer->Consumer: Have a Wallet

Note over Consumer,Exchange: Acquire CryptoCommodity units
Consumer-->Exchange: Orders CryptoCommodity units
Exchange->Consumer: Delivers CryptoCommodity units

Note over Consumer,Issuer: Purchase Asset with CryptoCommodity units
Consumer->Issuer: Sends CryptoCommodity units
Issuer->Consumer: Delivers Purchased Asset
]]></source><desc></desc><defs><marker viewBox="0 0 5 5" markerWidth="5" markerHeight="5" orient="auto" refX="5" refY="2.5" id="markerArrowBlock"><path d="M 0 0 L 5 2.5 L 0 5 z"></path></marker><marker viewBox="0 0 9.6 16" markerWidth="4" markerHeight="16" orient="auto" refX="9.6" refY="8" id="markerArrowOpen"><path d="M 9.6,8 1.92,16 0,13.7 5.76,8 0,2.286 1.92,0 9.6,8 z"></path></marker></defs><g class="title"></g><g class="actor"><path d="M10,20C76.4,24.4 99.6,15.6 119.9,20.0C118.2,50.1 121.6,30.0 119.9,61.6C90.9,57.2 49.3,66.0 10.0,61.6C8.3,26.7 11.7,30.0 10.0,20.0" stroke="#000000" fill="#ffffff" style="stroke-width: 2;"></path><text x="20" y="45.60000038146973" style="font-size: 16px; font-family: danielbd;"><tspan x="20">Consumer</tspan></text></g><g class="actor"><path d="M10,385.60000228881836C73.8,381.2 36.4,390.0 119.9,385.6C118.2,420.5 121.6,392.3 119.9,427.2C27.6,422.8 89.8,431.6 10.0,427.2C8.3,398.3 11.7,417.2 10.0,385.6" stroke="#000000" fill="#ffffff" style="stroke-width: 2;"></path><text x="20" y="411.2000026702881" style="font-size: 16px; font-family: danielbd;"><tspan x="20">Consumer</tspan></text></g><path d="M65.0,61.6C77.9,113.4 52.0,139.4 65.0,385.6" stroke="#000000" fill="none" style="stroke-width: 2;"></path><g class="actor"><path d="M329.2492141723633,20C412.7,24.0 404.7,16.0 428.6,20.0C426.9,39.1 430.3,43.5 428.6,61.6C377.8,57.6 403.1,65.6 329.2,61.6C330.9,51.6 327.6,51.3 329.2,20.0" stroke="#000000" fill="#ffffff" style="stroke-width: 2;"></path><text x="339.2492141723633" y="43.60000038146973" style="font-size: 16px; font-family: danielbd;"><tspan x="339.2492141723633">Exchange</tspan></text></g><g class="actor"><path d="M329.2492141723633,385.60000228881836C363.9,389.6 345.9,381.6 428.6,385.6C426.9,417.2 430.3,395.6 428.6,427.2C373.5,423.2 378.4,431.2 329.2,427.2C330.9,413.4 327.6,411.5 329.2,385.6" stroke="#000000" fill="#ffffff" style="stroke-width: 2;"></path><text x="339.2492141723633" y="409.2000026702881" style="font-size: 16px; font-family: danielbd;"><tspan x="339.2492141723633">Exchange</tspan></text></g><path d="M378.9,61.6C366.0,333.8 391.9,187.7 378.9,385.6" stroke="#000000" fill="none" style="stroke-width: 2;"></path><g class="actor"><path d="M448.5867156982422,20C494.3,17.2 462.0,22.8 518.9,20.0C517.3,54.9 520.6,51.6 518.9,61.6C498.0,58.8 470.4,64.4 448.6,61.6C446.9,47.6 450.3,26.7 448.6,20.0" stroke="#000000" fill="#ffffff" style="stroke-width: 2;"></path><text x="458.5867156982422" y="45.60000038146973" style="font-size: 16px; font-family: danielbd;"><tspan x="458.5867156982422">Issuer</tspan></text></g><g class="actor"><path d="M448.5867156982422,385.60000228881836C459.8,382.8 507.7,388.4 518.9,385.6C517.3,396.0 520.6,392.3 518.9,427.2C479.2,430.0 465.5,424.4 448.6,427.2C450.3,407.7 446.9,392.6 448.6,385.6" stroke="#000000" fill="#ffffff" style="stroke-width: 2;"></path><text x="458.5867156982422" y="411.2000026702881" style="font-size: 16px; font-family: danielbd;"><tspan x="458.5867156982422">Issuer</tspan></text></g><path d="M483.8,61.6C496.7,113.4 470.8,167.4 483.8,385.6" stroke="#000000" fill="none" style="stroke-width: 2;"></path><g class="signal"><text x="89.95547103881836" y="95.00000095367432" style="font-size: 16px; font-family: danielbd;"><tspan x="89.95547103881836">Have a Wallet</tspan></text><path d="M65.0,81.6C80.2,80.8 81.8,82.4 85.0,81.6" stroke="#000000" fill="none" style="stroke-width: 2;"></path><path d="M85.0,81.6C85.8,99.9 84.1,97.1 85.0,103.4" stroke="#000000" fill="none" style="stroke-width: 2;"></path><path d="M85.0,103.4C68.2,104.2 72.3,102.6 65.0,103.4" stroke="#000000" fill="none" style="stroke-width: 2; marker-end: url(&quot;#markerArrowBlock&quot;);"></path></g><g class="note"><path d="M54.95547103881836,118.4000015258789C161.3,105.0 135.1,131.8 388.9,118.4C390.2,128.3 387.6,123.6 388.9,150.8C281.5,137.4 135.1,164.2 55.0,150.8C53.7,123.6 56.3,133.7 55.0,118.4" stroke="#000000" fill="#ffffff" style="stroke-width: 2;"></path><text x="59.95547103881836" y="137.8000020980835" style="font-size: 16px; font-family: danielbd;"><tspan x="59.95547103881836">Acquire CryptoCommodity units</tspan></text></g><g class="signal"><text x="76.81795883178711" y="178.60000133514404" style="font-size: 16px; font-family: danielbd;"><tspan x="76.81795883178711">Orders CryptoCommodity units</tspan></text><path d="M65.0,192.4C278.5,179.8 154.0,205.0 378.9,192.4" stroke="#000000" fill="none" style="stroke-width: 2; stroke-dasharray: 6, 2; marker-end: url(&quot;#markerArrowBlock&quot;);"></path></g><g class="signal"><text x="74.95547103881836" y="220.20000171661377" style="font-size: 16px; font-family: danielbd;"><tspan x="74.95547103881836">Delivers CryptoCommodity units</tspan></text><path d="M378.9,234.0C245.2,221.4 221.5,246.6 65.0,234.0" stroke="#000000" fill="none" style="stroke-width: 2; marker-end: url(&quot;#markerArrowBlock&quot;);"></path></g><g class="note"><path d="M54.95547103881836,254.00000190734863C160.3,236.4 125.2,271.6 493.8,254.0C492.5,271.2 495.1,259.2 493.8,286.4C388.4,268.8 412.0,304.0 55.0,286.4C53.7,271.8 56.3,275.0 55.0,254.0" stroke="#000000" fill="#ffffff" style="stroke-width: 2;"></path><text x="59.95547103881836" y="273.4000024795532" style="font-size: 16px; font-family: danielbd;"><tspan x="59.95547103881836">Purchase Asset with CryptoCommodity units</tspan></text></g><g class="signal"><text x="138.81874066591263" y="314.20000171661377" style="font-size: 16px; font-family: danielbd;"><tspan x="138.0187406539917">Sends CryptoCommodity units</tspan></text><path d="M65.0,328.0C374.0,344.8 296.6,311.2 483.8,328.0" stroke="#000000" fill="none" style="stroke-width: 2; marker-end: url(&quot;#markerArrowBlock&quot;);"></path></g><g class="signal"><text x="162.99999523162842" y="358.60000228881836" style="font-size: 16px; font-family: danielbd;"><tspan x="162.99999523162842">Delivers Purchased Asset</tspan></text><path d="M483.8,365.6C202.2,382.4 199.6,348.8 65.0,365.6" stroke="#000000" fill="none" style="stroke-width: 2; marker-end: url(&quot;#markerArrowBlock&quot;);"></path></g></svg>