<svg class="svg-icon" width="1088" height="687.962" viewBox="0 0 1024 1024" version="1.1" xmlns="http://www.w3.org/2000/svg"><path d="M682.6 661.5H262.1V277.1h564.6L682.6 661.5z m-377.8-42.7h348.1L765 319.9H304.8v298.9z" fill="#3366CC" /><path d="M304.8 298.5h-42.7v-64.1h-64v-42.6h106.7zM347.5 832.2c-47.1 0-85.4-38.3-85.4-85.4 0-47.1 38.3-85.4 85.4-85.4s85.4 38.3 85.4 85.4c0 47.1-38.3 85.4-85.4 85.4z m0-128c-23.5 0-42.7 19.1-42.7 42.7s19.2 42.7 42.7 42.7c23.5 0 42.7-19.1 42.7-42.7s-19.2-42.7-42.7-42.7zM603.7 832.2c-47.1 0-85.4-38.3-85.4-85.4 0-47.1 38.3-85.4 85.4-85.4 47.1 0 85.4 38.3 85.4 85.4 0 47.1-38.3 85.4-85.4 85.4z m0-128c-23.6 0-42.7 19.1-42.7 42.7s19.1 42.7 42.7 42.7 42.7-19.1 42.7-42.7-19.1-42.7-42.7-42.7z" fill="#3366CC" /><path d="M432.9 448H561v42.7H432.9z" fill="#F4A914" /><path d="M475.6 405.2h42.7v128.1h-42.7z" fill="#F4A914" /></svg>