<?xml version="1.0" encoding="utf-8" standalone="no"?><!DOCTYPE svg PUBLIC "-//W3C//DTD SVG 20010904//EN" "http://www.w3.org/TR/2001/REC-SVG-20010904/DTD/svg10.dtd"><svg xmlns="http://www.w3.org/2000/svg" width="891" height="609" xmlns:xlink="http://www.w3.org/1999/xlink"><source><![CDATA[Consumer->Consumer: Have a Wallet

Note over Consumer,Exchange: Acquire CryptoCommodity units
Consumer-->Exchange: Orders CryptoCommodity units
Exchange->Consumer: Delivers CryptoCommodity units

Issuer->Issuer: Have a Wallet

Note over Consumer,Issuer: Purchase Asset with CryptoCommodity units
Consumer->Issuer: Sends CryptoCommodity units
Issuer->Consumer: Delivers Purchased Asset

Note over Issuer,Exchange: Withdraw Fiat
Issuer-->Exchange: Sends CryptoCommodity units
Exchange->Issuer: Withdraw Fiat]]></source><desc></desc><defs><marker viewBox="0 0 5 5" markerWidth="5" markerHeight="5" orient="auto" refX="5" refY="2.5" id="markerArrowBlock"><path d="M 0 0 L 5 2.5 L 0 5 z"></path></marker><marker viewBox="0 0 9.6 16" markerWidth="4" markerHeight="16" orient="auto" refX="9.6" refY="8" id="markerArrowOpen"><path d="M 9.6,8 1.92,16 0,13.7 5.76,8 0,2.286 1.92,0 9.6,8 z"></path></marker></defs><g class="title"></g><g class="actor"><path d="M10,20C27.6,24.4 44.9,15.6 119.9,20.0C121.6,38.0 118.2,31.1 119.9,61.6C93.5,66.0 77.0,57.2 10.0,61.6C11.7,30.0 8.3,46.2 10.0,20.0" stroke="#000000" fill="#ffffff" style="stroke-width: 2;"></path><text x="20" y="45.60000038146973" style="font-size: 16px; font-family: danielbd;"><tspan x="20">Consumer</tspan></text></g><g class="actor"><path d="M10,547.6000061035156C100.0,543.2 93.5,552.0 119.9,547.6C118.2,582.5 121.6,571.8 119.9,589.2C46.1,593.6 63.5,584.8 10.0,589.2C11.7,566.6 8.3,579.2 10.0,547.6" stroke="#000000" fill="#ffffff" style="stroke-width: 2;"></path><text x="20" y="573.2000064849854" style="font-size: 16px; font-family: danielbd;"><tspan x="20">Consumer</tspan></text></g><path d="M65.0,61.6C45.5,379.7 84.4,362.2 65.0,547.6" stroke="#000000" fill="none" style="stroke-width: 2;"></path><g class="actor"><path d="M329.2492141723633,20C389.0,24.0 345.1,16.0 428.6,20.0C430.3,26.7 426.9,45.6 428.6,61.6C348.5,65.6 383.4,57.6 329.2,61.6C327.6,51.6 330.9,30.0 329.2,20.0" stroke="#000000" fill="#ffffff" style="stroke-width: 2;"></path><text x="339.2492141723633" y="43.60000038146973" style="font-size: 16px; font-family: danielbd;"><tspan x="339.2492141723633">Exchange</tspan></text></g><g class="actor"><path d="M329.2492141723633,547.6000061035156C404.7,551.6 401.7,543.6 428.6,547.6C430.3,582.5 426.9,554.7 428.6,589.2C391.9,593.2 404.2,585.2 329.2,589.2C330.9,572.8 327.6,577.7 329.2,547.6" stroke="#000000" fill="#ffffff" style="stroke-width: 2;"></path><text x="339.2492141723633" y="571.2000064849854" style="font-size: 16px; font-family: danielbd;"><tspan x="339.2492141723633">Exchange</tspan></text></g><path d="M378.9,61.6C398.4,369.6 359.5,261.2 378.9,547.6" stroke="#000000" fill="none" style="stroke-width: 2;"></path><g class="actor"><path d="M636.4226703643799,20C668.7,17.2 695.5,22.8 706.8,20.0C705.1,27.9 708.4,54.9 706.8,61.6C695.5,58.8 689.9,64.4 636.4,61.6C634.8,36.8 638.1,54.9 636.4,20.0" stroke="#000000" fill="#ffffff" style="stroke-width: 2;"></path><text x="646.4226703643799" y="45.60000038146973" style="font-size: 16px; font-family: danielbd;"><tspan x="646.4226703643799">Issuer</tspan></text></g><g class="actor"><path d="M636.4226703643799,547.6000061035156C655.7,550.4 667.4,544.8 706.8,547.6C708.4,578.0 705.1,568.4 706.8,589.2C653.3,592.0 668.7,586.4 636.4,589.2C638.1,579.2 634.8,581.7 636.4,547.6" stroke="#000000" fill="#ffffff" style="stroke-width: 2;"></path><text x="646.4226703643799" y="573.2000064849854" style="font-size: 16px; font-family: danielbd;"><tspan x="646.4226703643799">Issuer</tspan></text></g><path d="M671.6,61.6C652.2,139.4 691.0,178.2 671.6,547.6" stroke="#000000" fill="none" style="stroke-width: 2;"></path><g class="signal"><text x="89.95547103881836" y="95.00000095367432" style="font-size: 16px; font-family: danielbd;"><tspan x="89.95547103881836">Have a Wallet</tspan></text><path d="M65.0,81.6C68.2,80.8 77.3,82.4 85.0,81.6" stroke="#000000" fill="none" style="stroke-width: 2;"></path><path d="M85.0,81.6C85.8,91.7 84.1,89.3 85.0,103.4" stroke="#000000" fill="none" style="stroke-width: 2;"></path><path d="M85.0,103.4C77.9,102.6 70.6,104.2 65.0,103.4" stroke="#000000" fill="none" style="stroke-width: 2; marker-end: url(&quot;#markerArrowBlock&quot;);"></path></g><g class="note"><path d="M54.95547103881836,118.4000015258789C163.0,105.0 135.1,131.8 388.9,118.4C387.6,143.0 390.2,126.8 388.9,150.8C135.1,164.2 280.9,137.4 55.0,150.8C56.3,128.0 53.7,132.8 55.0,118.4" stroke="#000000" fill="#ffffff" style="stroke-width: 2;"></path><text x="59.95547103881836" y="137.8000020980835" style="font-size: 16px; font-family: danielbd;"><tspan x="59.95547103881836">Acquire CryptoCommodity units</tspan></text></g><g class="signal"><text x="76.81795883178711" y="178.60000133514404" style="font-size: 16px; font-family: danielbd;"><tspan x="76.81795883178711">Orders CryptoCommodity units</tspan></text><path d="M65.0,192.4C245.3,205.0 303.6,179.8 378.9,192.4" stroke="#000000" fill="none" style="stroke-width: 2; stroke-dasharray: 6, 2; marker-end: url(&quot;#markerArrowBlock&quot;);"></path></g><g class="signal"><text x="74.95547103881836" y="220.20000171661377" style="font-size: 16px; font-family: danielbd;"><tspan x="74.95547103881836">Delivers CryptoCommodity units</tspan></text><path d="M378.9,234.0C328.7,246.6 169.2,221.4 65.0,234.0" stroke="#000000" fill="none" style="stroke-width: 2; marker-end: url(&quot;#markerArrowBlock&quot;);"></path></g><g class="signal"><text x="696.5929832458496" y="267.4000024795532" style="font-size: 16px; font-family: danielbd;"><tspan x="696.5929832458496">Have a Wallet</tspan></text><path d="M671.6,254.0C686.8,254.8 686.2,253.2 691.6,254.0" stroke="#000000" fill="none" style="stroke-width: 2;"></path><path d="M691.6,254.0C690.7,268.0 692.5,261.1 691.6,275.8" stroke="#000000" fill="none" style="stroke-width: 2;"></path><path d="M691.6,275.8C676.4,276.6 678.0,275.0 671.6,275.8" stroke="#000000" fill="none" style="stroke-width: 2; marker-end: url(&quot;#markerArrowBlock&quot;);"></path></g><g class="note"><path d="M54.95547103881836,290.8000030517578C372.7,265.7 205.3,315.9 681.6,290.8C680.3,315.4 682.9,301.1 681.6,323.2C531.2,298.1 351.7,348.3 55.0,323.2C53.7,303.8 56.3,313.9 55.0,290.8" stroke="#000000" fill="#ffffff" style="stroke-width: 2;"></path><text x="59.95547103881836" y="310.2000036239624" style="font-size: 16px; font-family: danielbd;"><tspan x="59.95547103881836">Purchase Asset with CryptoCommodity units</tspan></text></g><g class="signal"><text x="232.73671799898148" y="351.00000286102295" style="font-size: 16px; font-family: danielbd;"><tspan x="231.93671798706055">Sends CryptoCommodity units</tspan></text><path d="M65.0,364.8C162.0,389.1 574.5,340.5 671.6,364.8" stroke="#000000" fill="none" style="stroke-width: 2; marker-end: url(&quot;#markerArrowBlock&quot;);"></path></g><g class="signal"><text x="256.91797256469727" y="395.40000343322754" style="font-size: 16px; font-family: danielbd;"><tspan x="256.91797256469727">Delivers Purchased Asset</tspan></text><path d="M671.6,402.4C162.0,378.1 269.9,426.7 65.0,402.4" stroke="#000000" fill="none" style="stroke-width: 2; marker-end: url(&quot;#markerArrowBlock&quot;);"></path></g><g class="note"><path d="M368.91796493530273,422.40000343322754C560.6,409.9 448.1,434.9 681.6,422.4C682.7,442.9 680.5,429.9 681.6,449.2C444.0,461.7 556.5,436.7 368.9,449.2C367.8,440.9 370.0,430.5 368.9,422.4" stroke="#000000" fill="#ffffff" style="stroke-width: 2;"></path><text x="373.91796493530273" y="441.00000381469727" style="font-size: 16px; font-family: danielbd;"><tspan x="373.91796493530273">Withdraw Fiat</tspan></text></g><g class="signal"><text x="389.71796494722366" y="477.0000047683716" style="font-size: 16px; font-family: danielbd;"><tspan x="388.91796493530273">Sends CryptoCommodity units</tspan></text><path d="M671.6,490.8C579.6,479.1 601.4,502.5 378.9,490.8" stroke="#000000" fill="none" style="stroke-width: 2; stroke-dasharray: 6, 2; marker-end: url(&quot;#markerArrowBlock&quot;);"></path></g><g class="signal"><text x="462.9734420776367" y="521.0000047683716" style="font-size: 16px; font-family: danielbd;"><tspan x="462.9734420776367">Withdraw Fiat</tspan></text><path d="M378.9,527.6C449.2,539.3 536.6,515.9 671.6,527.6" stroke="#000000" fill="none" style="stroke-width: 2; marker-end: url(&quot;#markerArrowBlock&quot;);"></path></g></svg>