<?xml version="1.0" standalone="no"?>
<!DOCTYPE svg PUBLIC "-//W3C//DTD SVG 20010904//EN"
 "http://www.w3.org/TR/2001/REC-SVG-20010904/DTD/svg10.dtd">
<svg version="1.0" xmlns="http://www.w3.org/2000/svg"
 width="200.000000pt" height="200.000000pt" viewBox="0 0 200.000000 200.000000"
 preserveAspectRatio="xMidYMid meet">
<metadata>
Created by potrace 1.16, written by Peter Selinger 2001-2019
</metadata>
<g transform="translate(0.000000,200.000000) scale(0.100000,-0.100000)"
fill="#000000" stroke="none">
<path d="M730 1490 l0 -80 -60 0 -60 0 0 -255 0 -255 60 0 60 0 0 -75 0 -75
40 0 40 0 0 75 0 75 60 0 60 0 0 255 0 255 -60 0 -60 0 0 80 0 80 -40 0 -40 0
0 -80z m130 -335 l0 -185 -90 0 -90 0 0 185 0 185 90 0 90 0 0 -185z"/>
<path d="M1650 1325 l0 -75 -60 0 -60 0 0 -255 0 -255 60 0 60 0 0 -80 0 -80
35 0 35 0 0 80 0 80 65 0 65 0 0 255 0 255 -65 0 -65 0 0 75 0 75 -35 0 -35 0
0 -75z m130 -330 l0 -185 -90 0 -90 0 0 185 0 185 90 0 90 0 0 -185z"/>
<path d="M280 1300 l0 -80 -65 0 -65 0 0 -315 0 -315 65 0 65 0 0 -80 0 -80
35 0 35 0 0 80 0 80 60 0 60 0 0 315 0 315 -60 0 -60 0 0 80 0 80 -35 0 -35 0
0 -80z m120 -395 l0 -245 -90 0 -90 0 0 245 0 245 90 0 90 0 0 -245z"/>
<path d="M1190 1170 l0 -80 -60 0 -60 0 0 -175 0 -175 60 0 60 0 0 -80 0 -80
40 0 40 0 0 80 0 80 60 0 60 0 0 175 0 175 -60 0 -60 0 0 80 0 80 -40 0 -40 0
0 -80z m130 -255 l0 -105 -90 0 -90 0 0 105 0 105 90 0 90 0 0 -105z"/>
</g>
</svg>
