<?xml version="1.0" encoding="UTF-8" standalone="no"?>
<!-- Created with Inkscape (http://www.inkscape.org/) -->

<svg
   width="460mm"
   height="190mm"
   viewBox="0 0 460.00001 190"
   version="1.1"
   id="svg5"
   inkscape:version="1.1.2 (0a00cf5339, 2022-02-04)"
   sodipodi:docname="tokenization.svg"
   xmlns:inkscape="http://www.inkscape.org/namespaces/inkscape"
   xmlns:sodipodi="http://sodipodi.sourceforge.net/DTD/sodipodi-0.dtd"
   xmlns="http://www.w3.org/2000/svg"
   xmlns:svg="http://www.w3.org/2000/svg">
  <sodipodi:namedview
     id="namedview7"
     pagecolor="#ffffff"
     bordercolor="#666666"
     borderopacity="1.0"
     inkscape:pageshadow="2"
     inkscape:pageopacity="0.0"
     inkscape:pagecheckerboard="0"
     inkscape:document-units="mm"
     showgrid="false"
     inkscape:snap-global="false"
     inkscape:zoom="0.37504688"
     inkscape:cx="538.59933"
     inkscape:cy="315.9605"
     inkscape:window-width="1920"
     inkscape:window-height="1013"
     inkscape:window-x="0"
     inkscape:window-y="0"
     inkscape:window-maximized="1"
     inkscape:current-layer="layer1"
     fit-margin-top="0"
     fit-margin-left="0"
     fit-margin-right="0"
     fit-margin-bottom="0"
     showguides="false" />
  <defs
     id="defs2">
    <marker
       style="overflow:visible"
       id="marker1425"
       refX="0"
       refY="0"
       orient="auto"
       inkscape:stockid="Arrow1Lend"
       inkscape:isstock="true">
      <path
         transform="matrix(-0.8,0,0,-0.8,-10,0)"
         style="fill:context-stroke;fill-rule:evenodd;stroke:context-stroke;stroke-width:1pt"
         d="M 0,0 5,-5 -12.5,0 5,5 Z"
         id="path1423" />
    </marker>
    <marker
       style="overflow:visible"
       id="Arrow2Lstart"
       refX="0"
       refY="0"
       orient="auto"
       inkscape:stockid="Arrow2Lstart"
       inkscape:isstock="true">
      <path
         transform="matrix(1.1,0,0,1.1,1.1,0)"
         d="M 8.7185878,4.0337352 -2.2072895,0.01601326 8.7185884,-4.0017078 c -1.7454984,2.3720609 -1.7354408,5.6174519 -6e-7,8.035443 z"
         style="fill:context-stroke;fill-rule:evenodd;stroke:context-stroke;stroke-width:0.625;stroke-linejoin:round"
         id="path1157" />
    </marker>
    <marker
       style="overflow:visible"
       id="Arrow1Lstart"
       refX="0"
       refY="0"
       orient="auto"
       inkscape:stockid="Arrow1Lstart"
       inkscape:isstock="true">
      <path
         transform="matrix(0.8,0,0,0.8,10,0)"
         style="fill:context-stroke;fill-rule:evenodd;stroke:context-stroke;stroke-width:1pt"
         d="M 0,0 5,-5 -12.5,0 5,5 Z"
         id="path1139" />
    </marker>
    <marker
       style="overflow:visible"
       id="Arrow1Lend"
       refX="0"
       refY="0"
       orient="auto"
       inkscape:stockid="Arrow1Lend"
       inkscape:isstock="true">
      <path
         transform="matrix(-0.8,0,0,-0.8,-10,0)"
         style="fill:context-stroke;fill-rule:evenodd;stroke:context-stroke;stroke-width:1pt"
         d="M 0,0 5,-5 -12.5,0 5,5 Z"
         id="path1142" />
    </marker>
    <linearGradient
       id="linearGradient3174"
       inkscape:swatch="solid">
      <stop
         style="stop-color:#f0bccd;stop-opacity:1;"
         offset="0"
         id="stop3172" />
    </linearGradient>
  </defs>
  <g
     inkscape:label="Layer 1"
     inkscape:groupmode="layer"
     id="layer1"
     transform="translate(-37.011887,-83.701126)"
     style="display:inline">
    <rect
       style="opacity:0;fill:#f0bccd;fill-opacity:1;stroke-width:1;stroke-miterlimit:4;stroke-dasharray:none"
       id="rect3218"
       width="0"
       height="0"
       x="-158.84901"
       y="-34.409584" />
    <text
       xml:space="preserve"
       style="font-style:normal;font-weight:normal;font-size:10.5833px;line-height:1.25;font-family:sans-serif;letter-spacing:0px;word-spacing:0px;fill:#000000;fill-opacity:1;stroke:none;stroke-width:0.264583"
       x="183.61255"
       y="228.62711"
       id="text12548"><tspan
         sodipodi:role="line"
         id="tspan12546"
         style="stroke-width:0.264583"
         x="183.61255"
         y="228.62711" /></text>
    <rect
       style="display:inline;fill:#f6f6f6;fill-opacity:1;stroke:#00110f;stroke-width:0.661;stroke-linejoin:round;stroke-miterlimit:4;stroke-dasharray:none;stroke-opacity:0.884574"
       id="rect1011-0-5-5-9"
       width="81.168159"
       height="152.43213"
       x="268.59384"
       y="-253.34552"
       rx="0"
       ry="0"
       transform="scale(1,-1)" />
    <rect
       style="display:inline;fill:#ffffff;fill-opacity:1;stroke:#00110f;stroke-width:0.723777;stroke-linejoin:round;stroke-miterlimit:4;stroke-dasharray:4.34266, 4.34266;stroke-dashoffset:0;stroke-opacity:0.884574"
       id="rect1011-0-5-5-2"
       width="207.94511"
       height="71.335083"
       x="44.06134"
       y="-255.95241"
       rx="0"
       ry="0"
       transform="scale(1,-1)" />
    <text
       xml:space="preserve"
       style="font-style:normal;font-weight:normal;font-size:10.5833px;line-height:1.25;font-family:sans-serif;letter-spacing:0px;word-spacing:0px;display:inline;fill:#000000;fill-opacity:1;stroke:none;stroke-width:0.264583"
       x="127.02576"
       y="268.93155"
       id="text3735-0-1-9"
       inkscape:transform-center-x="1.8461432"><tspan
         sodipodi:role="line"
         id="tspan3733-9-9-9"
         style="stroke-width:0.264583"
         x="127.02576"
         y="268.93155">SUPPLY</tspan></text>
    <text
       xml:space="preserve"
       style="font-style:normal;font-weight:normal;font-size:10.5833px;line-height:1.25;font-family:sans-serif;letter-spacing:0px;word-spacing:0px;display:inline;fill:#000000;fill-opacity:1;stroke:none;stroke-width:0.264583"
       x="124.71468"
       y="98.77729"
       id="text3735-0-1-9-8"
       inkscape:transform-center-x="1.8461432"><tspan
         sodipodi:role="line"
         id="tspan3733-9-9-9-9"
         style="stroke-width:0.264583"
         x="124.71468"
         y="98.77729">DEMAND</tspan></text>
    <text
       xml:space="preserve"
       style="font-style:normal;font-weight:normal;font-size:10.5833px;line-height:1.25;font-family:sans-serif;letter-spacing:0px;word-spacing:0px;display:inline;fill:#000000;fill-opacity:1;stroke:none;stroke-width:0.264583"
       x="308.45993"
       y="172.42358"
       id="text3735-0-1-9-3"
       inkscape:transform-center-x="1.8461432"><tspan
         sodipodi:role="line"
         id="tspan3733-9-9-9-6"
         style="text-align:center;text-anchor:middle;stroke-width:0.264583"
         x="308.45993"
         y="172.42358">MONETARY</tspan><tspan
         sodipodi:role="line"
         style="text-align:center;text-anchor:middle;stroke-width:0.264583"
         x="308.45993"
         y="185.65271"
         id="tspan25368">POLICY</tspan></text>
    <path
       d="m 263.21677,211.95314 v 1.96691 h -4.37131 -4.37132 v 3.3637 3.36371 h 4.37132 4.37131 v 1.96691 1.96691 l 0.19176,-0.002 0.19176,-0.003 1.88049,-3.58491 c 1.84853,-3.52562 1.87946,-3.58605 1.86399,-3.61456 -0.008,-0.016 -0.85364,-1.68413 -1.87842,-3.70691 l -1.86296,-3.67727 -0.19383,-0.003 -0.19279,-0.002 z m 2.07019,2.46747 c 1.15056,2.2725 1.50728,2.98515 1.50006,2.99883 -0.005,0.0103 -0.70003,1.33636 -1.54543,2.94752 l -1.53511,2.92813 -0.003,-1.59747 -0.002,-1.59748 h -4.37131 -4.37132 v -2.81639 -2.81639 h 4.37132 4.37131 v -1.58835 -1.58721 l 0.0371,0.0741 c 0.0207,0.0411 0.71756,1.41504 1.54852,3.0547 z"
       id="path90282-9-2-8"
       style="display:inline;fill:#000000;stroke:none;stroke-width:0.00108422" />
    <rect
       style="display:inline;fill:#ffffff;fill-opacity:1;stroke:#00110f;stroke-width:0.730638;stroke-linejoin:round;stroke-miterlimit:4;stroke-dasharray:4.38383, 4.38383;stroke-dashoffset:0;stroke-opacity:0.884574"
       id="rect1011-0-5-5-2-5"
       width="210.233"
       height="71.90258"
       x="42.450642"
       y="-173.01561"
       rx="0"
       ry="0"
       transform="scale(1,-1)" />
    <rect
       style="display:inline;fill:#f6f6f6;fill-opacity:1;stroke:#00110f;stroke-width:0.284288;stroke-linejoin:round;stroke-miterlimit:4;stroke-dasharray:none;stroke-opacity:0.884574"
       id="rect1011-0-5"
       width="55.395401"
       height="41.352188"
       x="117.38504"
       y="-158.59076"
       rx="0"
       ry="0.064824291"
       transform="scale(1,-1)" />
    <rect
       style="display:inline;fill:#f6f6f6;fill-opacity:1;stroke:#00110f;stroke-width:0.284288;stroke-linejoin:round;stroke-miterlimit:4;stroke-dasharray:none;stroke-opacity:0.884574"
       id="rect1011-0-5-3"
       width="55.395401"
       height="41.352188"
       x="45.594002"
       y="-158.63754"
       rx="0"
       ry="0.064824291"
       transform="scale(1,-1)" />
    <rect
       style="display:inline;fill:#f6f6f6;fill-opacity:1;stroke:#00110f;stroke-width:0.285433;stroke-linejoin:round;stroke-opacity:0.884574"
       id="rect1011-0-5-5"
       width="55.394428"
       height="41.647011"
       x="188.26656"
       y="-158.60237"
       rx="0"
       ry="0"
       transform="scale(1,-1)" />
    <text
       xml:space="preserve"
       style="font-style:normal;font-weight:normal;font-size:10.5833px;line-height:1.25;font-family:sans-serif;letter-spacing:0px;word-spacing:0px;display:inline;fill:#000000;fill-opacity:1;stroke:none;stroke-width:0.264583"
       x="53.122341"
       y="142.08063"
       id="text3735"><tspan
         sodipodi:role="line"
         id="tspan3733"
         style="stroke-width:0.264583"
         x="53.122341"
         y="142.08063">ASSETS</tspan></text>
    <text
       xml:space="preserve"
       style="font-style:normal;font-weight:normal;font-size:10.5833px;line-height:1.25;font-family:sans-serif;letter-spacing:0px;word-spacing:0px;display:inline;fill:#000000;fill-opacity:1;stroke:none;stroke-width:0.264583"
       x="124.40269"
       y="141.69301"
       id="text3735-0-1"
       inkscape:transform-center-x="1.8461432"><tspan
         sodipodi:role="line"
         id="tspan3733-9-9"
         style="stroke-width:0.264583"
         x="124.40269"
         y="141.69301">UTILITY</tspan></text>
    <text
       xml:space="preserve"
       style="font-style:normal;font-weight:normal;font-size:10.5833px;line-height:1.25;font-family:sans-serif;letter-spacing:0px;word-spacing:0px;display:inline;fill:#000000;fill-opacity:1;stroke:none;stroke-width:0.264583"
       x="198.67"
       y="141.81685"
       id="text3735-0-1-4"
       inkscape:transform-center-x="1.8461432"><tspan
         sodipodi:role="line"
         id="tspan3733-9-9-4"
         style="stroke-width:0.264583"
         x="198.67"
         y="141.81685">VALUE</tspan></text>
    <path
       d="m 182.65655,132.23931 v 1.96691 h -4.37131 -4.37132 v 3.3637 3.36371 h 4.37132 4.37131 v 1.96691 1.96691 l 0.19176,-0.002 0.19176,-0.003 1.88049,-3.58491 c 1.84853,-3.52562 1.87946,-3.58605 1.86399,-3.61456 -0.008,-0.016 -0.85364,-1.68413 -1.87842,-3.70691 l -1.86296,-3.67727 -0.19383,-0.003 -0.19279,-0.002 z m 2.07019,2.46747 c 1.15056,2.2725 1.50728,2.98515 1.50006,2.99883 -0.005,0.0103 -0.70003,1.33636 -1.54543,2.94752 l -1.53511,2.92813 -0.003,-1.59747 -0.002,-1.59748 h -4.37131 -4.37132 v -2.81639 -2.81639 h 4.37132 4.37131 v -1.58835 -1.58721 l 0.0371,0.0741 c 0.0207,0.0411 0.71756,1.41504 1.54852,3.0547 z"
       id="path90282-9"
       style="display:inline;fill:#000000;stroke:none;stroke-width:0.00108422" />
    <rect
       style="display:inline;fill:#f6f6f6;fill-opacity:1;stroke:#00110f;stroke-width:0.366607;stroke-linejoin:round;stroke-miterlimit:4;stroke-dasharray:none;stroke-opacity:0.884574"
       id="rect1011-0-5-9"
       width="92.30452"
       height="41.269871"
       x="46.645424"
       y="-241.20802"
       rx="0"
       ry="0"
       transform="scale(1,-1)" />
    <rect
       style="display:inline;fill:#f6f6f6;fill-opacity:1;stroke:#00110f;stroke-width:0.365046;stroke-linejoin:round;stroke-opacity:0.884574"
       id="rect1011-0-5-5-25"
       width="90.77877"
       height="41.567398"
       x="154.51703"
       y="-241.22098"
       rx="0"
       ry="0"
       transform="scale(1,-1)" />
    <text
       xml:space="preserve"
       style="font-style:normal;font-weight:normal;font-size:10.5833px;line-height:1.25;font-family:sans-serif;letter-spacing:0px;word-spacing:0px;display:inline;fill:#000000;fill-opacity:1;stroke:none;stroke-width:0.264583"
       x="73.816422"
       y="224.35143"
       id="text3735-0-1-7"
       inkscape:transform-center-x="1.8461432"><tspan
         sodipodi:role="line"
         id="tspan3733-9-9-49"
         style="stroke-width:0.264583"
         x="73.816422"
         y="224.35143">SUPPLY</tspan></text>
    <text
       xml:space="preserve"
       style="font-style:normal;font-weight:normal;font-size:10.5833px;line-height:1.25;font-family:sans-serif;letter-spacing:0px;word-spacing:0px;display:inline;fill:#000000;fill-opacity:1;stroke:none;stroke-width:0.264583"
       x="199.37711"
       y="217.06375"
       id="text3735-0-1-4-9"
       inkscape:transform-center-x="1.8461432"><tspan
         sodipodi:role="line"
         id="tspan3733-9-9-4-4"
         style="text-align:center;text-anchor:middle;stroke-width:0.264583"
         x="199.37711"
         y="217.06375">SUPPLY</tspan><tspan
         sodipodi:role="line"
         style="text-align:center;text-anchor:middle;stroke-width:0.264583"
         x="199.37711"
         y="230.29288"
         id="tspan99033">MANAGEMENT</tspan></text>
    <path
       d="m 148.86721,214.89774 v 1.96691 h -4.37131 -4.37132 v 3.3637 3.36371 h 4.37132 4.37131 v 1.96691 1.96691 l 0.19176,-0.002 0.19176,-0.003 1.88049,-3.58491 c 1.84853,-3.52562 1.87946,-3.58605 1.86399,-3.61456 -0.008,-0.016 -0.85364,-1.68413 -1.87842,-3.70691 l -1.86296,-3.67727 -0.19383,-0.003 -0.19279,-0.002 z m 2.07019,2.46747 c 1.15056,2.2725 1.50728,2.98515 1.50006,2.99883 -0.005,0.0103 -0.70003,1.33636 -1.54543,2.94752 l -1.53511,2.92813 -0.003,-1.59747 -0.002,-1.59748 h -4.37131 -4.37132 v -2.81639 -2.81639 h 4.37132 4.37131 v -1.58835 -1.58721 l 0.0371,0.0741 c 0.0207,0.0411 0.71756,1.41504 1.54852,3.0547 z"
       id="path90282-9-5"
       style="display:inline;fill:#000000;stroke:none;stroke-width:0.00108422" />
    <path
       d="m 262.95853,132.70779 v 1.96691 h -4.37131 -4.37132 v 3.3637 3.36371 h 4.37132 4.37131 v 1.96691 1.96691 l 0.19176,-0.002 0.19176,-0.003 1.88049,-3.58491 c 1.84853,-3.52562 1.87946,-3.58605 1.86399,-3.61456 -0.008,-0.016 -0.85364,-1.68413 -1.87842,-3.70691 l -1.86296,-3.67727 -0.19383,-0.003 -0.19279,-0.002 z m 2.07019,2.46747 c 1.15056,2.2725 1.50728,2.98515 1.50006,2.99883 -0.005,0.0103 -0.70003,1.33636 -1.54543,2.94752 l -1.53511,2.92813 -0.003,-1.59747 -0.002,-1.59748 h -4.37131 -4.37132 v -2.81639 -2.81639 h 4.37132 4.37131 v -1.58835 -1.58721 l 0.0371,0.0741 c 0.0207,0.0411 0.71756,1.41504 1.54852,3.0547 z"
       id="path90282-9-2"
       style="display:inline;fill:#000000;stroke:none;stroke-width:0.00108422" />
    <path
       d="m 112.47606,132.50787 v 1.96691 h -4.3713 -4.37133 v 3.3637 3.36371 h 4.37133 4.3713 v 1.96691 1.96691 l 0.19176,-0.002 0.19176,-0.003 1.88049,-3.58491 c 1.84853,-3.52562 1.87946,-3.58605 1.86399,-3.61456 -0.008,-0.016 -0.85364,-1.68413 -1.87842,-3.70691 l -1.86296,-3.67727 -0.19383,-0.003 -0.19279,-0.002 z m 2.07019,2.46747 c 1.15056,2.2725 1.50728,2.98515 1.50006,2.99883 -0.005,0.0103 -0.70003,1.33636 -1.54543,2.94752 l -1.5351,2.92813 -0.003,-1.59747 -0.002,-1.59748 h -4.37131 -4.37133 v -2.81639 -2.81639 h 4.37133 4.37131 v -1.58835 -1.58721 l 0.0371,0.0741 c 0.0207,0.0411 0.71757,1.41504 1.54852,3.0547 z"
       id="path90282-9-3-9"
       style="display:inline;fill:#000000;stroke:none;stroke-width:0.00108422" />
    <text
       xml:space="preserve"
       style="font-style:normal;font-weight:normal;font-size:10.5833px;line-height:1.25;font-family:sans-serif;letter-spacing:0px;word-spacing:0px;display:inline;fill:#000000;fill-opacity:1;stroke:none;stroke-width:0.264583"
       x="405.00253"
       y="265.51199"
       id="text3735-0-1-9-35"
       inkscape:transform-center-x="1.8461432"><tspan
         sodipodi:role="line"
         id="tspan3733-9-9-9-7"
         style="stroke-width:0.264583"
         x="405.00253"
         y="265.51199">TOKENS</tspan></text>
    <rect
       style="display:inline;fill:#f6f6f6;fill-opacity:1;stroke:#00110f;stroke-width:0.322647;stroke-linejoin:round;stroke-opacity:0.884574"
       id="rect1011-0-5-5-5-5-9-4"
       width="117.75242"
       height="25.033827"
       x="366.59213"
       y="-252.88152"
       rx="0"
       ry="0"
       transform="scale(1,-1)"
       inkscape:transform-center-x="3.9241153"
       inkscape:transform-center-y="-49.777491" />
    <rect
       style="display:inline;fill:#f6f6f6;fill-opacity:1;stroke:#00110f;stroke-width:0.322647;stroke-linejoin:round;stroke-opacity:0.884574"
       id="rect1011-0-5-5-5-5-9-4-9"
       width="117.75242"
       height="25.033827"
       x="367.25812"
       y="-221.74934"
       rx="0"
       ry="0"
       transform="scale(1,-1)"
       inkscape:transform-center-x="3.9241153"
       inkscape:transform-center-y="-49.777491" />
    <rect
       style="display:inline;fill:#f6f6f6;fill-opacity:1;stroke:#00110f;stroke-width:0.322647;stroke-linejoin:round;stroke-opacity:0.884574"
       id="rect1011-0-5-5-5-5-9-4-0"
       width="117.75242"
       height="25.033827"
       x="367.37125"
       y="-189.72853"
       rx="0"
       ry="0"
       transform="scale(1,-1)"
       inkscape:transform-center-x="3.9241153"
       inkscape:transform-center-y="-49.777491" />
    <rect
       style="display:inline;fill:#f6f6f6;fill-opacity:1;stroke:#00110f;stroke-width:0.322647;stroke-linejoin:round;stroke-opacity:0.884574"
       id="rect1011-0-5-5-5-5-9-4-2"
       width="117.75242"
       height="25.033827"
       x="367.30661"
       y="-157.42979"
       rx="0"
       ry="0"
       transform="scale(1,-1)"
       inkscape:transform-center-x="3.9241153"
       inkscape:transform-center-y="-49.777491" />
    <rect
       style="display:inline;fill:#f6f6f6;fill-opacity:1;stroke:#00110f;stroke-width:0.322647;stroke-linejoin:round;stroke-opacity:0.884574"
       id="rect1011-0-5-5-5-5-9-4-8"
       width="117.75242"
       height="25.033827"
       x="366.34897"
       y="-125.37932"
       rx="0"
       ry="0"
       transform="scale(1,-1)"
       inkscape:transform-center-x="3.9241153"
       inkscape:transform-center-y="-49.777491" />
    <text
       xml:space="preserve"
       style="font-style:normal;font-weight:normal;font-size:10.5833px;line-height:1.25;font-family:sans-serif;letter-spacing:0px;word-spacing:0px;display:inline;fill:#000000;fill-opacity:1;stroke:none;stroke-width:0.264583"
       x="374.88998"
       y="244.26906"
       id="text3735-0-1-4-2-8-6-1"
       inkscape:transform-center-x="1.8461432"><tspan
         sodipodi:role="line"
         id="tspan3733-9-9-4-6-7-0-0"
         style="stroke-width:0.264583"
         x="374.88998"
         y="244.26906">UNBACKED TOKENS</tspan></text>
    <path
       d="m 360.44006,108.89078 v 1.96691 h -4.37131 -4.37132 v 3.3637 3.36371 h 4.37132 4.37131 v 1.96691 1.96691 l 0.19176,-0.002 0.19176,-0.003 1.88049,-3.58491 c 1.84853,-3.52562 1.87946,-3.58605 1.86399,-3.61456 -0.008,-0.016 -0.85364,-1.68413 -1.87842,-3.70691 l -1.86296,-3.67727 -0.19383,-0.003 -0.19279,-0.002 z m 2.07019,2.46747 c 1.15056,2.2725 1.50728,2.98515 1.50006,2.99883 -0.005,0.0103 -0.70003,1.33636 -1.54543,2.94752 l -1.53511,2.92813 -0.003,-1.59747 -0.002,-1.59748 h -4.37131 -4.37132 v -2.81639 -2.81639 h 4.37132 4.37131 v -1.58835 -1.58721 l 0.0371,0.0741 c 0.0207,0.0411 0.71756,1.41504 1.54852,3.0547 z"
       id="path90282-9-2-8-3"
       style="display:inline;fill:#000000;stroke:none;stroke-width:0.00108422" />
    <path
       d="m 361.10736,140.597 v 1.96691 h -4.37131 -4.37132 v 3.3637 3.36371 h 4.37132 4.37131 v 1.96691 1.96691 l 0.19176,-0.002 0.19176,-0.003 1.88049,-3.58491 c 1.84853,-3.52562 1.87946,-3.58605 1.86399,-3.61456 -0.008,-0.016 -0.85364,-1.68413 -1.87842,-3.70691 l -1.86296,-3.67727 -0.19383,-0.003 -0.19279,-0.002 z m 2.07019,2.46747 c 1.15056,2.2725 1.50728,2.98515 1.50006,2.99883 -0.005,0.0103 -0.70003,1.33636 -1.54543,2.94752 l -1.53511,2.92813 -0.003,-1.59747 -0.002,-1.59748 h -4.37131 -4.37132 v -2.81639 -2.81639 h 4.37132 4.37131 v -1.58835 -1.58721 l 0.0371,0.0741 c 0.0207,0.0411 0.71756,1.41504 1.54852,3.0547 z"
       id="path90282-9-2-8-0"
       style="display:inline;fill:#000000;stroke:none;stroke-width:0.00108422" />
    <path
       d="m 361.76092,173.80683 v 1.96691 h -4.37131 -4.37132 v 3.3637 3.36371 h 4.37132 4.37131 v 1.96691 1.96691 l 0.19176,-0.002 0.19176,-0.003 1.88049,-3.58491 c 1.84853,-3.52562 1.87946,-3.58605 1.86399,-3.61456 -0.008,-0.016 -0.85364,-1.68413 -1.87842,-3.70691 l -1.86296,-3.67727 -0.19383,-0.003 -0.19279,-0.002 z m 2.0702,2.46747 c 1.15056,2.2725 1.50727,2.98515 1.50006,2.99883 -0.005,0.0103 -0.70003,1.33636 -1.54543,2.94752 l -1.53511,2.92813 -0.003,-1.59747 -0.002,-1.59748 h -4.37131 -4.37132 v -2.81639 -2.81639 h 4.37132 4.37131 v -1.58835 -1.58721 l 0.0371,0.0741 c 0.0207,0.0411 0.71756,1.41504 1.54852,3.0547 z"
       id="path90282-9-2-8-0-1"
       style="display:inline;fill:#000000;stroke:none;stroke-width:0.00108422" />
    <path
       d="m 361.51331,205.0369 v 1.96691 h -4.37131 -4.37132 v 3.3637 3.36371 h 4.37132 4.37131 v 1.96691 1.96691 l 0.19176,-0.002 0.19176,-0.003 1.88049,-3.58491 c 1.84853,-3.52562 1.87946,-3.58605 1.86399,-3.61456 -0.008,-0.016 -0.85364,-1.68413 -1.87842,-3.70691 l -1.86296,-3.67727 -0.19383,-0.003 -0.19279,-0.002 z m 2.0702,2.46747 c 1.15056,2.2725 1.50727,2.98515 1.50006,2.99883 -0.005,0.0103 -0.70003,1.33636 -1.54543,2.94752 l -1.53511,2.92813 -0.003,-1.59747 -0.002,-1.59748 h -4.37131 -4.37132 v -2.81639 -2.81639 h 4.37132 4.37131 v -1.58835 -1.58721 l 0.0371,0.0741 c 0.0207,0.0411 0.71756,1.41504 1.54852,3.0547 z"
       id="path90282-9-2-8-0-1-3"
       style="display:inline;fill:#000000;stroke:none;stroke-width:0.00108422" />
    <path
       d="m 361.09734,231.15571 v 1.96691 h -4.37131 -4.37132 v 3.3637 3.36371 h 4.37132 4.37131 v 1.96691 1.96691 l 0.19176,-0.002 0.19176,-0.003 1.88049,-3.58491 c 1.84853,-3.52562 1.87946,-3.58605 1.86399,-3.61456 -0.008,-0.016 -0.85364,-1.68413 -1.87842,-3.70691 l -1.86296,-3.67727 -0.19383,-0.003 -0.19279,-0.002 z m 2.07019,2.46747 c 1.15056,2.2725 1.50728,2.98515 1.50006,2.99883 -0.005,0.0103 -0.70003,1.33636 -1.54543,2.94752 l -1.53511,2.92813 -0.003,-1.59747 -0.002,-1.59748 h -4.37131 -4.37132 v -2.81639 -2.81639 h 4.37132 4.37131 v -1.58835 -1.58721 l 0.0371,0.0741 c 0.0207,0.0411 0.71756,1.41504 1.54852,3.0547 z"
       id="path90282-9-2-8-0-7"
       style="display:inline;fill:#000000;stroke:none;stroke-width:0.00108422" />
    <text
       xml:space="preserve"
       style="font-style:normal;font-weight:normal;font-size:10.5833px;line-height:1.25;font-family:sans-serif;letter-spacing:0px;word-spacing:0px;white-space:pre;inline-size:108.254;display:inline;fill:#000000;fill-opacity:1;stroke:none;stroke-width:0.264583"
       x="375.33167"
       y="119.24981"
       id="text3735-0-1-4-2"
       inkscape:transform-center-x="1.8461432"
       transform="translate(-3.2818639,29.679187)"><tspan
         x="375.33167"
         y="119.24981"
         id="tspan1140">UNITS OF ACCOUNT</tspan></text>
    <text
       xml:space="preserve"
       style="font-style:normal;font-weight:normal;font-size:10.5833px;line-height:1.25;font-family:sans-serif;letter-spacing:0px;word-spacing:0px;white-space:pre;inline-size:108.254;display:inline;fill:#000000;fill-opacity:1;stroke:none;stroke-width:0.264583"
       x="375.33167"
       y="119.24981"
       id="text3735-0-1-4-2-80"
       inkscape:transform-center-x="1.8461432"
       transform="translate(37.010175,-2.9272164)"><tspan
         x="375.33167"
         y="119.24981"
         id="tspan1142">NFT</tspan></text>
    <text
       xml:space="preserve"
       style="font-style:normal;font-weight:normal;font-size:10.5833px;line-height:1.25;font-family:sans-serif;letter-spacing:0px;word-spacing:0px;display:inline;fill:#000000;fill-opacity:1;stroke:none;stroke-width:0.264583"
       x="388.19278"
       y="181.46266"
       id="text3735-0-1-4-2-8"
       inkscape:transform-center-x="1.8461432"><tspan
         sodipodi:role="line"
         id="tspan3733-9-9-4-6-7"
         style="stroke-width:0.264583"
         x="388.19278"
         y="181.46266">STABLECOINS</tspan></text>
    <text
       xml:space="preserve"
       style="font-style:normal;font-weight:normal;font-size:10.5833px;line-height:1.25;font-family:sans-serif;letter-spacing:0px;word-spacing:0px;display:inline;fill:#000000;fill-opacity:1;stroke:none;stroke-width:0.264583"
       x="424.78827"
       y="207.16475"
       id="text3735-0-1-4-2-8-6"
       inkscape:transform-center-x="1.8461432"><tspan
         sodipodi:role="line"
         id="tspan3733-9-9-4-6-7-0"
         style="text-align:center;text-anchor:middle;stroke-width:0.264583"
         x="424.78827"
         y="207.16475">UTILITY BACKED</tspan><tspan
         sodipodi:role="line"
         style="text-align:center;text-anchor:middle;stroke-width:0.264583"
         x="424.78827"
         y="220.39388"
         id="tspan81360">TOKENS</tspan></text>
  </g>
</svg>
